HIERARCHY
ROOT Hip
{
	OFFSET -0.209006 -0.147981 0.247551
	CHANNELS 6 Xposition Yposition Zposition Xrotation Yrotation Zrotation
	JOINT LowerSpine
	{
		OFFSET -0.009510 0.142251 0.266717
		CHANNELS 6 Xposition Yposition Zposition Xrotation Yrotation Zrotation
		JOINT MiddleSpine
		{
			OFFSET -0.010537 -0.022321 0.236130
			CHANNELS 3 Xrotation Yrotation Zrotation
			JOINT Chest
			{
				OFFSET -0.012152 0.044878 0.295645
				CHANNELS 3 Xrotation Yrotation Zrotation
				JOINT Neck
				{
					OFFSET -0.028850 -0.018819 0.660497
					CHANNELS 6 Xposition Yposition Zposition Xrotation Yrotation Zrotation
					JOINT Head
					{
						OFFSET -0.017619 -0.119057 0.367810
						CHANNELS 3 Xrotation Yrotation Zrotation
						End Site
						{
							OFFSET -0.002371 -0.004128 0.053441
						}
					}
				}
				JOINT LClavicle
				{
					OFFSET 0.029635 -0.227484 0.630049
					CHANNELS 6 Xposition Yposition Zposition Xrotation Yrotation Zrotation
					JOINT LShoulder
					{
						OFFSET 0.348456 0.138611 0.113588
						CHANNELS 3 Xrotation Yrotation Zrotation
						JOINT LForearm
						{
							OFFSET 0.827858 -0.004510 0.033227
							CHANNELS 3 Xrotation Yrotation Zrotation
							JOINT LHand
							{
								OFFSET 0.690390 -0.005818 0.032076
								CHANNELS 3 Xrotation Yrotation Zrotation
								JOINT LFinger1
								{
									OFFSET 0.265655 -0.079234 0.031408
									CHANNELS 6 Xposition Yposition Zposition Xrotation Yrotation Zrotation
									JOINT LFinger11
									{
										OFFSET 0.100948 -0.017910 -0.020893
										CHANNELS 3 Xrotation Yrotation Zrotation
										JOINT LFinger12
										{
											OFFSET 0.068915 -0.012231 -0.014266
											CHANNELS 3 Xrotation Yrotation Zrotation
											End Site
											{
												OFFSET 0.051313 -0.008241 -0.013330
											}
										}
									}
								}
								JOINT LFinger2
								{
									OFFSET 0.270319 -0.011623 0.038441
									CHANNELS 6 Xposition Yposition Zposition Xrotation Yrotation Zrotation
									JOINT LFinger21
									{
										OFFSET 0.123751 -0.001054 0.005734
										CHANNELS 3 Xrotation Yrotation Zrotation
										JOINT LFinger22
										{
											OFFSET 0.068595 -0.000573 0.003198
											CHANNELS 3 Xrotation Yrotation Zrotation
											End Site
											{
												OFFSET 0.053628 -0.000658 -0.001462
											}
										}
									}
								}
								JOINT LFinger3
								{
									OFFSET 0.257336 0.056355 0.032064
									CHANNELS 6 Xposition Yposition Zposition Xrotation Yrotation Zrotation
									JOINT LFinger31
									{
										OFFSET 0.112633 0.005695 -0.000485
										CHANNELS 3 Xrotation Yrotation Zrotation
										JOINT LFinger32
										{
											OFFSET 0.064183 0.003257 -0.000255
											CHANNELS 3 Xrotation Yrotation Zrotation
											End Site
											{
												OFFSET 0.053455 0.002061 -0.004107
											}
										}
									}
								}
								JOINT LFinger4
								{
									OFFSET 0.240922 0.102587 -0.002771
									CHANNELS 6 Xposition Yposition Zposition Xrotation Yrotation Zrotation
									JOINT LFinger41
									{
										OFFSET 0.069939 0.018758 -0.010490
										CHANNELS 3 Xrotation Yrotation Zrotation
										JOINT LFinger42
										{
											OFFSET 0.051286 0.013763 -0.007676
											CHANNELS 3 Xrotation Yrotation Zrotation
											End Site
											{
												OFFSET 0.051211 0.011510 -0.011113
											}
										}
									}
								}
								JOINT LFinger0
								{
									OFFSET 0.056681 -0.040770 -0.041464
									CHANNELS 6 Xposition Yposition Zposition Xrotation Yrotation Zrotation
									JOINT LFinger01
									{
										OFFSET 0.103599 -0.077564 -0.033062
										CHANNELS 3 Xrotation Yrotation Zrotation
										JOINT LFinger02
										{
											OFFSET 0.068333 -0.048707 -0.023658
											CHANNELS 3 Xrotation Yrotation Zrotation
											End Site
											{
												OFFSET 0.042828 -0.029040 -0.014180
											}
										}
									}
								}
							}
						}
					}
				}
				JOINT RClavicle
				{
					OFFSET -0.090411 -0.225770 0.624854
					CHANNELS 6 Xposition Yposition Zposition Xrotation Yrotation Zrotation
					JOINT RShoulder
					{
						OFFSET -0.352933 0.148651 0.083255
						CHANNELS 3 Xrotation Yrotation Zrotation
						JOINT RForearm
						{
							OFFSET -0.827425 0.019128 -0.038402
							CHANNELS 3 Xrotation Yrotation Zrotation
							JOINT RHand
							{
								OFFSET -0.690464 0.013901 -0.027678
								CHANNELS 3 Xrotation Yrotation Zrotation
								JOINT RFinger1
								{
									OFFSET -0.269528 -0.071592 0.008252
									CHANNELS 6 Xposition Yposition Zposition Xrotation Yrotation Zrotation
									JOINT RFinger11
									{
										OFFSET -0.099235 -0.015051 -0.029556
										CHANNELS 3 Xrotation Yrotation Zrotation
										JOINT RFinger12
										{
											OFFSET -0.067745 -0.010279 -0.020186
											CHANNELS 3 Xrotation Yrotation Zrotation
											End Site
											{
												OFFSET -0.050184 -0.006791 -0.017721
											}
										}
									}
								}
								JOINT RFinger2
								{
									OFFSET -0.272850 -0.003869 0.014937
									CHANNELS 6 Xposition Yposition Zposition Xrotation Yrotation Zrotation
									JOINT RFinger21
									{
										OFFSET -0.123764 0.002481 -0.004974
										CHANNELS 3 Xrotation Yrotation Zrotation
										JOINT RFinger22
										{
											OFFSET -0.068603 0.001389 -0.002739
											CHANNELS 3 Xrotation Yrotation Zrotation
											End Site
											{
												OFFSET -0.053299 0.000869 -0.006089
											}
										}
									}
								}
								JOINT RFinger3
								{
									OFFSET -0.257432 0.063706 0.009792
									CHANNELS 6 Xposition Yposition Zposition Xrotation Yrotation Zrotation
									JOINT RFinger31
									{
										OFFSET -0.111963 0.008903 -0.010204
										CHANNELS 3 Xrotation Yrotation Zrotation
										JOINT RFinger32
										{
											OFFSET -0.063805 0.005084 -0.005793
											CHANNELS 3 Xrotation Yrotation Zrotation
											End Site
											{
												OFFSET -0.052820 0.003578 -0.008706
											}
										}
									}
								}
								JOINT RFinger4
								{
									OFFSET -0.236761 0.109408 -0.023442
									CHANNELS 6 Xposition Yposition Zposition Xrotation Yrotation Zrotation
									JOINT RFinger41
									{
										OFFSET -0.068209 0.020731 -0.016468
										CHANNELS 3 Xrotation Yrotation Zrotation
										JOINT RFinger42
										{
											OFFSET -0.050019 0.015210 -0.012057
											CHANNELS 3 Xrotation Yrotation Zrotation
											End Site
											{
												OFFSET -0.049711 0.012951 -0.015480
											}
										}
									}
								}
								JOINT RFinger0
								{
									OFFSET -0.054028 -0.039187 -0.046251
									CHANNELS 6 Xposition Yposition Zposition Xrotation Yrotation Zrotation
									JOINT RFinger01
									{
										OFFSET -0.102525 -0.074623 -0.041987
										CHANNELS 3 Xrotation Yrotation Zrotation
										JOINT RFinger02
										{
											OFFSET -0.067394 -0.046769 -0.029529
											CHANNELS 3 Xrotation Yrotation Zrotation
											End Site
											{
												OFFSET -0.042253 -0.027825 -0.017861
											}
										}
									}
								}
							}
						}
					}
				}
			}
		}
	}
	JOINT RThigh
	{
		OFFSET -0.311787 0.024019 0.105145
		CHANNELS 6 Xposition Yposition Zposition Xrotation Yrotation Zrotation
		JOINT RShin
		{
			OFFSET 0.030806 0.057330 -1.207621
			CHANNELS 3 Xrotation Yrotation Zrotation
			JOINT RFoot
			{
				OFFSET 0.052072 0.055983 -1.184867
				CHANNELS 3 Xrotation Yrotation Zrotation
				JOINT RToe
				{
					OFFSET 0.002394 -0.266404 -0.143250
					CHANNELS 3 Xrotation Yrotation Zrotation
					End Site
					{
						OFFSET -0.000654 -0.053587 -0.002561
					}
				}
			}
		}
	}
	JOINT LThigh
	{
		OFFSET 0.302095 0.015253 0.131718
		CHANNELS 6 Xposition Yposition Zposition Xrotation Yrotation Zrotation
		JOINT LShin
		{
			OFFSET 0.075253 0.056696 -1.205707
			CHANNELS 3 Xrotation Yrotation Zrotation
			JOINT LFoot
			{
				OFFSET 0.052072 0.055983 -1.184868
				CHANNELS 3 Xrotation Yrotation Zrotation
				JOINT LToe
				{
					OFFSET 0.002395 -0.266406 -0.143253
					CHANNELS 3 Xrotation Yrotation Zrotation
					End Site
					{
						OFFSET -0.000654 -0.053587 -0.002561
					}
				}
			}
		}
	}
}
MOTION
Frames: 4
Frame Time: 0.041667
0.510823 -3.847852 3.102647 165.396364 -11.609261 -13.599245 -0.009510 0.142250 0.266717 -0.984303 6.143101 1.219272 -1.119806 6.074322 1.223822 -1.005184 6.345014 1.274740 -0.028850 -0.018819 0.660497 -48.632825 -0.070452 -2.968370 -2.365311 -0.369535 -0.141821 0.029635 -0.227484 0.630049 -1.657301 -22.790892 -1.371448 -40.923154 -51.553271 -51.727830 0.013110 0.052382 -0.726607 -101.617355 -47.420996 -68.376320 0.265655 -0.079234 0.031409 -0.000002 0.000003 0.000001 0.000006 0.000013 -0.000003 -0.000004 0.000000 -0.000005 0.270319 -0.011622 0.038442 -0.000002 0.000003 0.000001 -0.000002 -0.000003 0.000001 0.000004 -0.000005 -0.000003 0.257336 0.056355 0.032064 -0.000001 0.000006 -0.000002 0.000001 0.000004 0.000003 -0.000005 -0.000001 0.000003 0.240923 0.102587 -0.002772 -0.000003 0.000001 0.000003 0.000000 0.000008 0.000002 0.000008 -0.000001 0.000005 0.056681 -0.040771 -0.041464 0.000001 0.000013 -0.000003 0.000003 0.000001 -0.000003 -0.000009 0.000009 -0.000013 -0.090411 -0.225770 0.624854 0.219967 24.164779 -0.557843 -41.082396 37.068601 49.639950 0.042101 0.044509 -0.949785 -89.664135 68.943889 28.681791 -0.269527 -0.071592 0.008251 -0.000007 -0.000009 0.000010 -0.000005 0.000001 0.000002 -0.000000 -0.000000 -0.000000 -0.272849 -0.003869 0.014937 -0.000005 -0.000001 0.000003 -0.000001 -0.000002 0.000004 0.000001 -0.000006 -0.000007 -0.257431 0.063706 0.009791 -0.000006 0.000001 -0.000000 -0.000003 -0.000008 0.000001 0.000001 -0.000003 0.000002 -0.236760 0.109409 -0.023442 0.000001 0.000003 0.000002 0.000003 0.000009 0.000004 -0.000003 -0.000013 -0.000008 -0.054027 -0.039187 -0.046252 -0.000003 0.000005 -0.000002 -0.000009 -0.000010 0.000001 0.000003 0.000014 0.000009 -0.314079 -0.092677 0.009906 -19.082293 18.585269 5.903442 38.117547 0.023684 1.704804 -0.443764 -0.086909 0.152218 -0.000000 0.000000 -0.000001 0.338318 -0.168470 0.316836 -151.284633 -8.152521 12.007334 108.150643 2.475038 3.429612 1.568781 -1.130770 2.197075 0.000009 0.000035 -0.000002 
0.510823 -3.847852 3.102647 165.396364 -11.609261 -13.599245 -0.009510 0.142250 0.266717 -0.984303 6.143101 1.219272 -1.119806 6.074322 1.223822 -1.005184 6.345014 1.274740 -0.028850 -0.018819 0.660497 -48.632825 -0.070452 -2.968370 -2.365311 -0.369535 -0.141821 0.029635 -0.227484 0.630049 -1.657301 -22.790892 -1.371448 -40.923154 -51.553271 -51.727830 0.013110 0.052382 -0.726607 -101.617355 -47.420996 -68.376320 0.265655 -0.079234 0.031409 -0.000002 0.000003 0.000001 0.000006 0.000013 -0.000003 -0.000004 0.000000 -0.000005 0.270319 -0.011622 0.038442 -0.000002 0.000003 0.000001 -0.000002 -0.000003 0.000001 0.000004 -0.000005 -0.000003 0.257336 0.056355 0.032064 -0.000001 0.000006 -0.000002 0.000001 0.000004 0.000003 -0.000005 -0.000001 0.000003 0.240923 0.102587 -0.002772 -0.000003 0.000001 0.000003 0.000000 0.000008 0.000002 0.000008 -0.000001 0.000005 0.056681 -0.040771 -0.041464 0.000001 0.000013 -0.000003 0.000003 0.000001 -0.000003 -0.000009 0.000009 -0.000013 -0.090411 -0.225770 0.624854 0.219967 24.164779 -0.557843 -41.082396 37.068601 49.639950 0.042101 0.044509 -0.949785 -89.664135 68.943889 28.681791 -0.269527 -0.071592 0.008251 -0.000007 -0.000009 0.000010 -0.000005 0.000001 0.000002 -0.000000 -0.000000 -0.000000 -0.272849 -0.003869 0.014937 -0.000005 -0.000001 0.000003 -0.000001 -0.000002 0.000004 0.000001 -0.000006 -0.000007 -0.257431 0.063706 0.009791 -0.000006 0.000001 -0.000000 -0.000003 -0.000008 0.000001 0.000001 -0.000003 0.000002 -0.236760 0.109409 -0.023442 0.000001 0.000003 0.000002 0.000003 0.000009 0.000004 -0.000003 -0.000013 -0.000008 -0.054027 -0.039187 -0.046252 -0.000003 0.000005 -0.000002 -0.000009 -0.000010 0.000001 0.000003 0.000014 0.000009 -0.314079 -0.092677 0.009906 -19.082293 18.585269 5.903442 38.117547 0.023684 1.704804 -0.443764 -0.086909 0.152218 -0.000000 0.000000 -0.000001 0.338318 -0.168470 0.316836 -151.284633 -8.152521 12.007334 108.150643 2.475038 3.429612 1.568781 -1.130770 2.197075 0.000009 0.000035 -0.000002 
0.510726 -3.849872 3.104080 165.761793 -11.792347 -14.119837 -0.009510 0.142250 0.266717 -1.222791 6.154932 1.200755 -1.310130 6.041030 1.206121 -1.176522 6.366870 1.269069 -0.028850 -0.018820 0.660496 -48.655327 -0.015232 -2.920147 -2.390877 -0.408962 -0.147541 0.029635 -0.227484 0.630049 -1.558234 -23.105359 -1.379151 -40.923154 -51.553271 -51.727823 0.033773 0.142482 -2.013461 -101.617355 -47.420996 -68.376313 0.265654 -0.079234 0.031408 -0.000005 -0.000003 -0.000000 0.000004 0.000007 0.000001 0.000001 -0.000003 -0.000002 0.270318 -0.011622 0.038441 -0.000002 -0.000001 -0.000000 -0.000002 -0.000001 -0.000001 0.000001 0.000001 -0.000001 0.257335 0.056355 0.032064 -0.000001 0.000003 -0.000001 -0.000001 0.000008 0.000001 -0.000004 0.000004 0.000005 0.240922 0.102587 -0.002772 -0.000007 -0.000004 0.000003 -0.000003 0.000005 -0.000005 0.000005 -0.000005 0.000006 0.056681 -0.040770 -0.041464 -0.000003 0.000009 -0.000004 0.000004 0.000003 -0.000003 -0.000004 0.000013 -0.000018 -0.090411 -0.225770 0.624854 0.232964 24.111411 -0.709271 -41.581871 36.832143 50.703933 0.064896 0.067757 -1.494682 -89.664135 68.943889 28.681791 -0.269527 -0.071592 0.008251 -0.000007 -0.000012 0.000009 -0.000004 0.000005 0.000003 0.000001 -0.000004 0.000001 -0.272850 -0.003869 0.014937 -0.000006 -0.000004 0.000002 -0.000001 0.000001 0.000004 0.000001 -0.000004 -0.000007 -0.257431 0.063706 0.009792 -0.000006 -0.000002 -0.000000 -0.000003 -0.000010 0.000001 0.000001 0.000002 0.000000 -0.236761 0.109409 -0.023442 -0.000001 0.000003 0.000002 0.000003 0.000002 0.000002 -0.000003 -0.000017 -0.000011 -0.054028 -0.039187 -0.046251 -0.000004 0.000006 -0.000003 -0.000006 -0.000010 0.000003 0.000007 0.000017 0.000009 -0.314079 -0.092678 0.009906 -19.449181 18.496043 6.474911 40.338752 0.059896 1.799314 -0.069067 0.020944 -0.041743 0.000001 -0.000000 -0.000003 0.338318 -0.168471 0.316836 -150.098625 -8.859642 12.833458 110.452724 2.579911 3.427706 3.321990 -0.963229 1.982366 0.000011 0.000032 -0.000004 
0.510994 -3.852598 3.105743 166.192013 -11.913132 -14.413757 -0.009510 0.142251 0.266717 -1.431197 6.160169 1.181576 -1.493608 6.007315 1.188142 -1.357528 6.391487 1.266454 -0.028850 -0.018819 0.660497 -48.654730 0.044310 -2.866150 -2.444223 -0.450005 -0.154318 0.029635 -0.227484 0.630049 -1.516365 -23.241095 -1.382431 -40.923154 -51.553271 -51.727816 0.009079 0.256180 -3.112225 -101.617348 -47.420996 -68.376313 0.265654 -0.079234 0.031408 -0.000004 0.000003 0.000003 0.000006 0.000009 -0.000001 -0.000003 -0.000001 -0.000009 0.270318 -0.011622 0.038441 0.000001 0.000003 0.000002 0.000003 -0.000006 -0.000001 -0.000000 -0.000005 -0.000001 0.257335 0.056355 0.032064 -0.000000 0.000003 0.000003 -0.000000 0.000008 0.000001 -0.000002 -0.000000 0.000006 0.240922 0.102587 -0.002772 -0.000003 0.000001 0.000004 -0.000001 0.000005 0.000000 0.000007 -0.000008 0.000005 0.056681 -0.040771 -0.041464 -0.000000 0.000011 -0.000000 0.000001 0.000001 -0.000003 -0.000006 0.000009 -0.000016 -0.090411 -0.225770 0.624854 0.243952 24.065758 -0.838628 -41.724646 36.739663 51.050968 0.059377 0.063680 -1.362821 -89.664148 68.943889 28.681795 -0.269527 -0.071592 0.008251 -0.000007 -0.000010 0.000010 -0.000004 0.000007 0.000001 -0.000001 -0.000002 -0.000001 -0.272849 -0.003869 0.014937 -0.000006 -0.000001 0.000002 -0.000002 0.000002 0.000004 0.000001 -0.000003 -0.000007 -0.257431 0.063706 0.009791 -0.000006 -0.000003 -0.000000 -0.000003 -0.000008 0.000001 0.000002 0.000003 0.000000 -0.236761 0.109409 -0.023442 -0.000003 0.000002 0.000003 0.000003 0.000009 -0.000000 -0.000003 -0.000010 -0.000011 -0.054027 -0.039187 -0.046251 -0.000003 0.000004 -0.000003 -0.000002 -0.000011 0.000001 0.000002 0.000012 0.000009 -0.314079 -0.092676 0.009906 -19.527910 18.400994 6.782675 42.335019 0.095548 1.883005 0.558794 -0.127008 0.240458 0.000001 -0.000001 -0.000000 0.338318 -0.168470 0.316836 -149.680672 -9.025208 13.312790 110.976832 2.603768 3.426687 4.699545 -1.046420 2.235592 0.000007 0.000033 -0.000005 
